<?xml version="1.0" encoding="UTF-8"?>
<svg id="Layer_2" data-name="Layer 2" xmlns="http://www.w3.org/2000/svg" viewBox="0 0 110.04 83.71">
  <defs>
    <style>
      .cls-1 {
        fill: none;
      }

      .cls-2 {
        fill: #fff;
      }
    </style>
  </defs>
  <g id="Layer_1-2" data-name="Layer 1">
    <g>
      <g>
        <path class="cls-1" d="M82.16,69.91c9.86,0,19.16,3.62,26.39,10.23V12.28c-14.61-14.38-38.16-14.38-52.77,0v67.87c7.23-6.61,16.53-10.23,26.38-10.23Z"/>
        <path class="cls-1" d="M1.5,12.28v67.87c7.23-6.61,16.53-10.23,26.39-10.23s19.16,3.62,26.39,10.23V12.28C39.66-2.1,16.12-2.1,1.5,12.28Z"/>
        <path class="cls-2" d="M109.82,11.44c-15.08-15.08-39.51-15.24-54.8-.5C39.73-3.81,15.3-3.65.22,11.44l-.22.22v72.06l1.28-1.28c7.11-7.11,16.56-11.02,26.61-11.02s19.3,3.84,26.39,10.81c.07.07.15.14.22.21l.53.53.53-.53c.07-.07.15-.14.22-.21,7.08-6.97,16.44-10.81,26.38-10.81s19.5,3.91,26.61,11.02l1.28,1.28V11.65l-.22-.22ZM54.27,80.15c-7.23-6.61-16.53-10.23-26.39-10.23s-19.16,3.62-26.39,10.23V12.28c14.62-14.38,38.16-14.38,52.77,0v67.87ZM108.54,80.15c-7.23-6.61-16.53-10.23-26.39-10.23s-19.16,3.62-26.38,10.23V12.28c14.61-14.38,38.16-14.38,52.77,0v67.87Z"/>
      </g>
      <path class="cls-2" d="M22.35,24.85c-2.24,2.04-4.09,4.77-5.54,8.18,2.55-.31,4.91-1.14,7.07-2.49,2.16-1.35,3.91-3.12,5.26-5.34h.41l-3.52,14.04h.21c1.42-2.07,2.74-3.55,3.96-4.43,1.23-.88,2.67-1.32,4.33-1.32,1.04,0,1.89.29,2.56.88.67.59,1.06,1.36,1.17,2.33-.31-.48-.81-.87-1.5-1.17-.69-.29-1.47-.44-2.33-.44-1.59,0-3.09.65-4.51,1.94-1.42,1.29-3.09,3.58-5.02,6.86l-.26.98c-.41,1.66-.62,3.02-.62,4.09,0,.34.02.57.05.67h-3.21c.38-.48.69-1.04.93-1.66.24-.62.54-1.66.88-3.11l2.12-8.55c.55-2.24,1.14-4.21,1.76-5.91l-.16-.1c-3.49,2.45-6.91,3.89-10.26,4.3-.93,2.49-1.64,5.12-2.12,7.9-.48,2.78-.69,5.48-.62,8.11,1.14,1.59,2.8,2.86,4.97,3.81,2.18.95,4.58,1.42,7.2,1.42,2.07,0,4.13-.38,6.16-1.14,2.04-.76,4.3-2.02,6.79-3.78-4.01,4.35-8.44,6.53-13.31,6.53-3.7,0-6.58-.64-8.65-1.92s-3.57-3.06-4.51-5.34c-.17-.86-.26-2-.26-3.42,0-4.07.74-8.08,2.23-12.02h-.05c-2,0-3.57-.3-4.69-.91-1.12-.6-1.68-1.42-1.68-2.46s.43-1.97,1.29-2.69c.86-.73,1.88-1.09,3.06-1.09.86,0,1.51.21,1.94.62.43.41.61,1.02.54,1.81-.62-.62-1.36-.93-2.23-.93-.73,0-1.34.2-1.84.6-.5.4-.75.89-.75,1.48,0,.66.42,1.15,1.27,1.48.85.33,2.01.49,3.5.49h.26c1.66-3.87,3.86-7,6.6-9.4,2.74-2.4,5.81-3.6,9.19-3.6,1.14,0,2.18.07,3.11.21.93.14,1.97.35,3.11.62,1.93.45,3.49.67,4.66.67.86,0,1.74-.1,2.64-.29.9-.19,1.98-.53,3.26-1.01-1.07.97-2.16,1.69-3.26,2.18-1.11.48-2.33.72-3.68.72-1.14,0-2.64-.22-4.51-.67-1.1-.28-2.09-.48-2.95-.62-.86-.14-1.81-.21-2.85-.21-2.83,0-5.37,1.02-7.61,3.06"/>
      <path class="cls-2" d="M98.86,28.43c0,3.35-.85,6.36-2.56,9.04-1.71,2.68-4.03,4.77-6.97,6.29-2.94,1.52-6.16,2.28-9.69,2.28-.93,0-1.85-.05-2.74-.16l-1.6,6.32c-.45,1.8-.67,3.14-.67,4.04,0,.28.03.52.1.73h-3.21c.38-.45.68-.98.91-1.61.22-.62.53-1.67.91-3.16l1.66-6.68c-1.21-.28-2.27-.66-3.18-1.16-.92-.5-1.62-1.08-2.1-1.74,1.07.73,2.95,1.24,5.65,1.55l1.97-7.82c.59-2.42,1.23-4.56,1.92-6.42l-.21-.1c-1.93,1.86-4.04,3.23-6.32,4.09-.28,1.73-.41,3.44-.41,5.13-.66-1.45-1.02-2.99-1.09-4.61-1.07.24-1.99.36-2.75.36-1.62,0-2.89-.31-3.81-.93-.91-.62-1.37-1.47-1.37-2.54,0-1.24.41-2.25,1.22-3.03.81-.78,1.86-1.17,3.13-1.17.86,0,1.52.21,1.97.62.45.41.64,1.02.57,1.81-.59-.62-1.33-.93-2.23-.93-.79,0-1.43.22-1.92.67-.48.45-.72,1-.72,1.66,0,.69.33,1.23.98,1.63.65.4,1.59.6,2.8.6.65,0,1.38-.09,2.18-.26.17-2.55,1-4.79,2.49-6.71,1.48-1.92,3.42-3.4,5.8-4.45,2.38-1.05,5.01-1.58,7.87-1.58,3.07,0,5.45.44,7.12,1.32,1.67.88,2.91,2.12,3.7,3.7.41.83.62,1.9.62,3.21M88.65,42.28c2.66-1.43,4.72-3.44,6.19-6.03,1.47-2.59,2.2-5.56,2.2-8.91,0-1.17-.12-2.02-.36-2.54-.83-1.07-1.98-1.84-3.44-2.31-1.47-.47-3.55-.7-6.24-.7-3.7,0-6.72.92-9.07,2.74-2.35,1.83-3.97,4.42-4.87,7.77,1.31-.55,2.64-1.41,3.99-2.56,1.35-1.16,2.87-2.67,4.56-4.53h.41l-4.77,19.17c.52.03,1.24.05,2.18.05,3.49,0,6.56-.71,9.22-2.15"/>
    </g>
  </g>
</svg>